<svg id="Group_387" data-name="Group 387" xmlns="http://www.w3.org/2000/svg" width="28" height="28" viewBox="0 0 28 28">
    <path id="Path_682" data-name="Path 682" d="M0,0H28V28H0Z" fill="none"/>
    <path id="Path_683" data-name="Path 683" d="M20.148,19.681,13.045,27l-7.1-7.324a10.586,10.586,0,0,1,0-14.647,9.832,9.832,0,0,1,14.206,0,10.586,10.586,0,0,1,0,14.647Zm-7.1-2.721a4.535,4.535,0,0,0,4.464-4.6,4.535,4.535,0,0,0-4.464-4.6,4.535,4.535,0,0,0-4.464,4.6A4.535,4.535,0,0,0,13.045,16.961Zm0-2.3a2.3,2.3,0,1,1,2.232-2.3A2.268,2.268,0,0,1,13.045,14.659Z" transform="translate(0.955 0.637)" fill="#5399ff"/>
</svg>
